<?xml version="1.0" encoding="UTF-8"?>
<svg version="1.1" xmlns="http://www.w3.org/2000/svg" width="178" height="191">
<path d="M0 0 C4.22610338 2.99669149 8.06938198 5.97007018 11.5625 9.8125 C14.14315259 12.48763873 14.96218528 12.98991607 18.75 14 C22.01317616 14.17129004 22.01317616 14.17129004 25 13 C27.90584612 12.90227619 30.78225992 12.86090829 33.6875 12.875 C34.46544922 12.87113281 35.24339844 12.86726563 36.04492188 12.86328125 C39.87946869 12.86967749 43.45517882 13.04706488 47.23046875 13.734375 C51.80334701 14.05660891 53.11959923 13.2186142 56.625 10.375 C58.01912109 9.27285156 58.01912109 9.27285156 59.44140625 8.1484375 C60.28574219 7.43945312 61.13007812 6.73046875 62 6 C62.64839844 5.45601562 63.29679687 4.91203125 63.96484375 4.3515625 C64.49207031 3.90554687 65.01929687 3.45953125 65.5625 3 C68 1 68 1 70 1 C69.85848172 3.0836309 69.71162064 5.16689938 69.5625 7.25 C69.44068359 8.99023438 69.44068359 8.99023438 69.31640625 10.765625 C69.06551276 13.33031399 68.64269355 15.52770305 68 18 C67.38879691 23.62106448 67.85217052 28.1306531 70 33.375 C72.69042988 40.21197056 73.46311298 46.79571883 71.01171875 53.83984375 C69.24188577 57.57128729 67.73506298 60.37802363 64.5625 63.0625 C64.046875 63.701875 63.53125 64.34125 63 65 C64.17186095 72.21924213 66.66296368 78.7715346 69.3125 85.5625 C73.41773051 96.30360501 77.22296347 107.01837921 80.08203125 118.16796875 C80.25822998 118.85238037 80.43442871 119.53679199 80.6159668 120.24194336 C81.09247597 122.12169777 81.55081869 124.00603107 82.0078125 125.890625 C82.97147689 128.91061261 83.75147922 130.77870102 86 133 C89.62563814 133.33380814 89.62563814 133.33380814 93 133 C96.6407649 126.92720415 95.64999437 119.3433842 94.34765625 112.64453125 C91.56274446 102.64036316 86.7475329 94.75187035 79.5625 87.3125 C76.95466132 84.48185568 75.44696621 82.65284901 75.25 78.75 C76.4893617 72.55319149 76.4893617 72.55319149 80 70 C85.0084865 68.96884101 89.73778643 68.82004143 94.3515625 71.2265625 C108.23600646 82.53782766 113.0703445 104.20376033 115.28369141 121.17529297 C115.96406548 128.93539047 115.08233312 135.33409242 111 142 C110.46375 142.9075 109.9275 143.815 109.375 144.75 C102.84404824 150.93721746 95.45827061 152.58805505 86.6875 153.25 C85.800625 153.4975 84.91375 153.745 84 154 C82.65086401 156.35981911 82.65086401 156.35981911 82 159 C79.36437593 162.90799432 77.46008979 164.56611642 73 166 C70.27516174 166.27174377 70.27516174 166.27174377 67.29516602 166.30297852 C66.17372696 166.31962051 65.0522879 166.33626251 63.89686584 166.35340881 C62.69468918 166.36182297 61.49251251 166.37023712 60.25390625 166.37890625 C59.01003647 166.39590073 57.76616669 166.4128952 56.48460388 166.43040466 C53.1842249 166.47450562 49.88389108 166.51082644 46.58337402 166.54260254 C41.93918114 166.58832911 37.29512713 166.64446896 32.65110779 166.70530701 C30.18149224 166.73712435 27.71180777 166.76405715 25.24208069 166.78553772 C23.55519386 166.80577248 23.55519386 166.80577248 21.83422852 166.82641602 C20.85003433 166.83592789 19.86584015 166.84543976 18.8518219 166.85523987 C15.83699297 167.00827433 12.96960988 167.47016564 10 168 C-0.52455051 168.82625171 -0.52455051 168.82625171 -5.125 166.25 C-8.77761184 161.86686579 -9.55676808 158.28627403 -9.44921875 152.65234375 C-8.65067954 147.93749051 -5.85150459 144.7170201 -3 141 C2.91166025 132.12449925 5.04687235 124.90893313 5.2109375 114.10546875 C5.23929688 112.81962891 5.26765625 111.53378906 5.296875 110.20898438 C5.35147726 107.53964888 5.39306204 104.87090623 5.4296875 102.20117188 C5.66033884 92.58589425 6.38798966 83.86543647 12.1875 75.875 C12.71730469 75.12992187 13.24710938 74.38484375 13.79296875 73.6171875 C14.19128906 73.08351563 14.58960937 72.54984375 15 72 C14.34773438 71.59910156 13.69546875 71.19820313 13.0234375 70.78515625 C6.00219743 66.21824346 1.73467998 61.46935997 -2 54 C-2.88588326 40.06437485 -2.88588326 40.06437485 -0.5 35 C2.61874273 28.35060511 1.74679809 18.93129482 0 12 C-0.06743348 9.91765408 -0.08514472 7.83331443 -0.0625 5.75 C-0.05347656 4.67234375 -0.04445313 3.5946875 -0.03515625 2.484375 C-0.02355469 1.66453125 -0.01195312 0.8446875 0 0 Z " fill="#6E4BBA" transform="translate(47,6)"/>
<path d="M0 0 C1.55030118 1.55030118 1.24405099 3.03676001 1.3125 5.1875 C1.2605772 9.84571708 0.12648571 12.43928017 -3 16 C-5.92519069 18.29836411 -9.2115415 18.54197269 -12.8984375 18.4453125 C-16.87211356 17.60330679 -19.555553 15.15504206 -22 12 C-22.9375 8.625 -22.9375 8.625 -23 6 C-15.84185093 2.73214934 -8.01806608 -0.82236575 0 0 Z " fill="#F3F1FA" transform="translate(108,43)"/>
<path d="M0 0 C8.11397712 1.07619941 15.41260829 2.92322305 23 6 C23.375 8.6875 23.375 8.6875 23 12 C18.879881 16.120119 15.9410376 17.74543769 10.1875 18.5 C6.69194144 18.4289258 4.98046474 17.65618106 2.5 15.1875 C-1.04507913 10.53099066 -0.54603541 5.59180707 0 0 Z " fill="#F6F4FA" transform="translate(56,43)"/>
</svg>
