<?xml version="1.0" encoding="UTF-8" standalone="no" ?>
<!DOCTYPE svg PUBLIC "-//W3C//DTD SVG 1.1//EN" "http://www.w3.org/Graphics/SVG/1.1/DTD/svg11.dtd">
<svg xmlns="http://www.w3.org/2000/svg" xmlns:xlink="http://www.w3.org/1999/xlink" version="1.1" width="1080" height="1080" viewBox="0 0 1080 1080" xml:space="preserve">
<desc>Created with Fabric.js 5.2.4</desc>
<defs>
</defs>
<rect x="0" y="0" width="100%" height="100%" fill="transparent"></rect>
<g transform="matrix(1 0 0 1 540 540)" id="3a5e802a-2280-4365-9b3c-e9273d1f4df0"  >
<rect style="stroke: none; stroke-width: 1; stroke-dasharray: none; stroke-linecap: butt; stroke-dashoffset: 0; stroke-linejoin: miter; stroke-miterlimit: 4; fill: rgb(255,255,255); fill-rule: nonzero; opacity: 1; visibility: hidden;" vector-effect="non-scaling-stroke"  x="-540" y="-540" rx="0" ry="0" width="1080" height="1080" />
</g>
<g transform="matrix(1 0 0 1 540 540)" id="fe1350a5-b309-476f-b0b3-9b348781242b"  >
</g>
<g transform="matrix(1 0 0 1 309.65 529.16)"  >
<path style="stroke: none; stroke-width: 1; stroke-dasharray: none; stroke-linecap: butt; stroke-dashoffset: 0; stroke-linejoin: miter; stroke-miterlimit: 4; fill: rgb(108,74,185); fill-rule: nonzero; opacity: 1;" vector-effect="non-scaling-stroke"  transform=" translate(-35.65, -56.66)" d="M 0 0 C 0.67095703 0.58007812 0.67095703 0.58007812 1.35546875 1.171875 C 2.60870863 2.25142492 3.86676912 3.32539698 5.12890625 4.39453125 C 6.65851762 5.70699529 8.1480488 7.06604531 9.625 8.4375 C 10.40875 8.953125 11.1925 9.46875 12 10 C 12.68449219 9.85820313 13.36898437 9.71640625 14.07421875 9.5703125 C 16.72419505 9.05376171 18.63160715 9.0155409 21.29296875 9.18359375 C 32.47130453 9.99714938 32.47130453 9.99714938 42.1875 5 C 44.4051375 2.88374031 44.4051375 2.88374031 46 1 C 47.16413981 4.96669863 46.61399222 7.90671854 46 12 C 45.5650105 17.10296786 45.5650105 17.10296786 46.9921875 21.90234375 C 48.94929861 25.97586571 48.42192546 30.58896107 48 35 C 46.77338109 38.27098376 45.83995723 40.25003819 43.25 42.5625 C 42.8375 43.036875 42.425 43.51125 42 44 C 42.46709079 49.02122603 44.81803722 53.58928762 46.75 58.1875 C 49.88632771 65.79376184 52.43978304 73.37323683 54.45214844 81.3503418 C 55.30457618 84.70032115 56.06069585 87.09104378 58 90 C 60.54207971 90.33343551 60.54207971 90.33343551 63 90 C 64.66997441 88.33002559 64.2114271 86.35437312 64.25 84.0625 C 64.08716443 72.61960056 60.02437231 65.02437231 52 57 C 51.69412214 53.63534359 51.46645388 51.06709225 53 48 C 56.36551572 46.31724214 59.5441486 46.92047078 63 48 C 72.3174576 54.71723688 75.22124732 68.21417078 77 79 C 77.62640625 85.00464177 77.90802643 90.00932667 75.375 95.5625 C 71.16160624 99.88677254 67.83044552 101.98168317 61.875 102.875 C 57.79510381 103.54273076 57.26958367 103.66976 54.5 107.0625 C 54.005 108.031875 53.51 109.00125 53 110 C 50.72030566 111.13984717 49.39210089 111.1473056 46.85742188 111.18945312 C 45.57599304 111.21452942 45.57599304 111.21452942 44.26867676 111.2401123 C 43.34470093 111.25368774 42.4207251 111.26726318 41.46875 111.28125 C 40.52189331 111.29965942 39.57503662 111.31806885 38.5994873 111.33703613 C 34.53730785 111.41586628 30.47495827 111.48350142 26.41259766 111.55224609 C 23.45206366 111.60391915 20.49167445 111.66119144 17.53125 111.71875 C 16.60727417 111.73232544 15.68329834 111.74590088 14.73132324 111.7598877 C 13.44989441 111.78496399 13.44989441 111.78496399 12.14257812 111.81054688 C 11.38916138 111.82307495 10.63574463 111.83560303 9.85949707 111.84851074 C 7.90666843 111.89120312 7.90666843 111.89120312 6 113 C -0.26519337 113.5801105 -0.26519337 113.5801105 -3.375 111.125 C -6.06998016 107.60079518 -6.37615249 105.43750908 -6 101 C -4.57421875 98.5078125 -4.57421875 98.5078125 -2.6875 96.125 C 4.71059641 86.72616053 4.43303228 77.87222683 4.43945312 66.37890625 C 4.54814254 59.88002885 4.74548515 56.00048951 9 51 C 9.33 50.01 9.66 49.02 10 48 C 9.0925 47.443125 8.185 46.88625 7.25 46.3125 C 3.16222953 43.40389409 0.59498566 40.78495698 -1 36 C -1.11880354 34.1903182 -1.1751965 32.37603553 -1.1875 30.5625 C -1.20167969 29.61503906 -1.21585938 28.66757813 -1.23046875 27.69140625 C -0.99111875 24.89628501 -0.24768103 23.46124578 1 21 C 1.65713814 14.02765294 0.8415933 6.92811629 0 0 Z" stroke-linecap="round" />
</g>
<g transform="matrix(1 0 0 1 431.45 538.37)"  >
<path style="stroke: none; stroke-width: 1; stroke-dasharray: none; stroke-linecap: butt; stroke-dashoffset: 0; stroke-linejoin: miter; stroke-miterlimit: 4; fill: rgb(108,74,185); fill-rule: nonzero; opacity: 1;" vector-effect="non-scaling-stroke"  transform=" translate(-5.45, -24.87)" d="M 0 0 C 1.98095513 1.89764394 3.40904916 3.74187623 5 6 C 5.59167969 5.44570312 6.18335938 4.89140625 6.79296875 4.3203125 C 7.58316406 3.59585938 8.37335938 2.87140625 9.1875 2.125 C 9.96480469 1.40570313 10.74210937 0.68640625 11.54296875 -0.0546875 C 16.74915184 -4.17659398 21.5875612 -4.64124388 28 -4 C 35.87992827 -2.54843427 42.39008345 0.45736897 47.44287109 6.81567383 C 52.64397206 15.59866508 51.54776671 25.27753443 51.3125 35.125 C 51.2873796 36.95830284 51.26457306 38.79163892 51.24414062 40.625 C 51.1937356 45.08483634 51.09584542 49.53999289 51 54 C 45.39 54 39.78 54 34 54 C 33.96261719 51.44765625 33.92523438 48.8953125 33.88671875 46.265625 C 33.84048912 43.78995256 33.7892608 41.31443046 33.73754883 38.83886719 C 33.70432319 37.12021035 33.67628384 35.40144501 33.65356445 33.68261719 C 33.61997439 31.20981677 33.56765822 28.73800844 33.51171875 26.265625 C 33.50532883 25.49881409 33.4989389 24.73200317 33.49235535 23.94195557 C 33.3767307 19.73358314 33.12176964 16.97606167 30 14 C 27.87985831 13.23327268 27.87985831 13.23327268 25.5625 13.125 C 24.80066406 13.04507813 24.03882813 12.96515625 23.25390625 12.8828125 C 20.60216043 13.0206849 19.19096662 13.50214172 17 15 C 14.44434483 18.69742176 14.65307758 22.7170132 14.5859375 27.046875 C 14.56657135 27.81807678 14.5472052 28.58927856 14.5272522 29.3838501 C 14.46762923 31.83912205 14.42114086 34.29444133 14.375 36.75 C 14.33680425 38.41798882 14.29775159 40.08595826 14.2578125 41.75390625 C 14.16033361 45.83583474 14.08063021 49.91756492 14 54 C 8.39 54 2.78 54 -3 54 C -3.02578125 51.53144531 -3.0515625 49.06289062 -3.078125 46.51953125 C -3.11657468 44.11992147 -3.16172523 41.72052445 -3.20751953 39.32104492 C -3.23568649 37.65773737 -3.25692233 35.99429704 -3.27099609 34.33081055 C -3.29248592 31.93469475 -3.33916288 29.54016816 -3.390625 27.14453125 C -3.39185364 26.4047554 -3.39308228 25.66497955 -3.39434814 24.90278625 C -3.53229153 20.00343581 -4.50383333 17.44013312 -8 14 C -11.13871188 12.43064406 -13.53855822 12.64798897 -17 13 C -20.7073661 15.76123468 -21.87547272 17.26874225 -22.65942383 21.87231445 C -22.70023098 23.36883123 -22.71476103 24.86622816 -22.70703125 26.36328125 C -22.72215256 27.15526413 -22.73727386 27.94724701 -22.75285339 28.76322937 C -22.7956638 31.27994403 -22.80456132 33.79545782 -22.8125 36.3125 C -22.83564969 38.02412032 -22.86101603 39.73571219 -22.88867188 41.44726562 C -22.95561397 45.63216072 -22.97663675 49.81373002 -23 54 C -28.61 54 -34.22 54 -40 54 C -40.13852723 48.48456385 -40.25770718 42.97526926 -40.32958984 37.45947266 C -40.3595798 35.58751874 -40.40038687 33.71570316 -40.45263672 31.84423828 C -40.96212983 13.11287404 -40.96212983 13.11287404 -35.73876953 5.80419922 C -26.10466986 -4.19243046 -12.11105633 -7.86741848 0 0 Z" stroke-linecap="round" />
</g>
<g transform="matrix(1 0 0 1 578.35 538.78)"  >
<path style="stroke: none; stroke-width: 1; stroke-dasharray: none; stroke-linecap: butt; stroke-dashoffset: 0; stroke-linejoin: miter; stroke-miterlimit: 4; fill: rgb(110,75,186); fill-rule: nonzero; opacity: 1;" vector-effect="non-scaling-stroke"  transform=" translate(-0.47, -28.72)" d="M 0 0 C 0.7943042 0.00612305 1.5886084 0.01224609 2.40698242 0.01855469 C 8.35938978 0.17743221 13.09812001 1.07847115 18.125 4.4375 C 19.48625 5.30375 19.48625 5.30375 20.875 6.1875 C 26.80295884 12.11545884 29.86392172 18.93488229 30.35205078 27.35327148 C 30.35173945 28.75508546 30.34076078 30.15692889 30.3203125 31.55859375 C 30.3174826 32.30335464 30.31465271 33.04811554 30.31173706 33.81544495 C 30.30063917 36.16880101 30.2755551 38.52176109 30.25 40.875 C 30.23995672 42.48111425 30.23083324 44.08723454 30.22265625 45.69335938 C 30.20244466 49.60834417 30.16327826 53.52248455 30.125 57.4375 C 24.185 57.4375 18.245 57.4375 12.125 57.4375 C 12.11082031 54.96894531 12.09664063 52.50039062 12.08203125 49.95703125 C 12.05138772 47.55739816 12.01230534 45.15803997 11.97241211 42.75854492 C 11.94926334 41.09523288 11.93484369 39.4317749 11.92944336 37.76831055 C 11.9201302 35.37196249 11.87909449 32.97789941 11.83203125 30.58203125 C 11.8359639 29.8422554 11.83989655 29.10247955 11.84394836 28.34028625 C 11.73207516 24.35159511 11.27002547 22.61413865 8.70581055 19.4909668 C 4.6521997 16.26564083 2.32748362 16.0039597 -2.875 16.4375 C -6.87167215 18.54894944 -9.31252172 20.18492679 -10.875 24.4375 C -11.11005111 27.00542437 -11.24671528 29.47628418 -11.2890625 32.046875 C -11.30842865 32.77368469 -11.3277948 33.50049438 -11.3477478 34.24932861 C -11.40734271 36.56193448 -11.45384758 38.87459067 -11.5 41.1875 C -11.53819836 42.75913582 -11.57725117 44.33075113 -11.6171875 45.90234375 C -11.71463062 49.74728671 -11.7943553 53.59202137 -11.875 57.4375 C -17.485 57.4375 -23.095 57.4375 -28.875 57.4375 C -29.01394598 52.52807545 -29.13297613 47.62565661 -29.20458984 42.71582031 C -29.23448167 41.05152083 -29.27521203 39.38737496 -29.32763672 37.72363281 C -29.68093168 26.21037358 -29.21789536 16.46928585 -21.05419922 7.41894531 C -14.92352844 1.56416397 -8.23164748 -0.10763728 0 0 Z" stroke-linecap="round" />
</g>
<g transform="matrix(1 0 0 1 635.39 532.54)"  >
<path style="stroke: none; stroke-width: 1; stroke-dasharray: none; stroke-linecap: butt; stroke-dashoffset: 0; stroke-linejoin: miter; stroke-miterlimit: 4; fill: rgb(112,78,187); fill-rule: nonzero; opacity: 1;" vector-effect="non-scaling-stroke"  transform=" translate(-18.39, -36.04)" d="M 0 0 C 5.94 0 11.88 0 18 0 C 18 4.95 18 9.9 18 15 C 23.28 15 28.56 15 34 15 C 34 20.61 34 26.22 34 32 C 28.72 32 23.44 32 18 32 C 18.103125 34.371875 18.20625 36.74375 18.3125 39.1875 C 18.33739502 39.92508545 18.36229004 40.6626709 18.38793945 41.42260742 C 18.62778818 45.74396957 19.41031065 48.53644996 22 52 C 26.45689676 55.78160937 31.38052484 55.62536832 37 56 C 37 61.28 37 66.56 37 72 C 26.32618246 72.36806267 18.35780126 71.63998285 9.85546875 64.80078125 C 3.26775658 58.40723323 -0.04551538 51.01894716 -0.22705078 41.89086914 C -0.22673725 39.9389362 -0.21562411 37.98698353 -0.1953125 36.03515625 C -0.1924826 35.00184677 -0.18965271 33.96853729 -0.18673706 32.90391541 C -0.17559647 29.62332278 -0.15050304 26.34300927 -0.125 23.0625 C -0.1149623 20.83008208 -0.10583783 18.59765986 -0.09765625 16.36523438 C -0.07567716 10.9100497 -0.04118949 5.45507208 0 0 Z" stroke-linecap="round" />
</g>
<g transform="matrix(1 0 0 1 677.34 532.67)"  >
<path style="stroke: none; stroke-width: 1; stroke-dasharray: none; stroke-linecap: butt; stroke-dashoffset: 0; stroke-linejoin: miter; stroke-miterlimit: 4; fill: rgb(109,74,186); fill-rule: nonzero; opacity: 1;" vector-effect="non-scaling-stroke"  transform=" translate(-18.34, -36.17)" d="M 0 0 C 5.61 0 11.22 0 17 0 C 17 5.28 17 10.56 17 16 C 22.28 16 27.56 16 33 16 C 33 21.28 33 26.56 33 32 C 27.72 32 22.44 32 17 32 C 17.103125 34.18625 17.20625 36.3725 17.3125 38.625 C 17.37050781 39.85476562 17.42851562 41.08453125 17.48828125 42.3515625 C 18.02790287 46.19894106 18.96671333 48.70617218 21 52 C 24.52155964 54.34770643 26.50771843 54.37669614 30.6875 54.625 C 31.86699219 54.69976562 33.04648437 54.77453125 34.26171875 54.8515625 C 35.16535156 54.90054688 36.06898438 54.94953125 37 55 C 37.02684679 57.64590014 37.04676357 60.29153096 37.0625 62.9375 C 37.07087891 63.69224609 37.07925781 64.44699219 37.08789062 65.22460938 C 37.09652441 67.14994313 37.05224333 69.07535581 37 71 C 35.25389203 72.74610797 32.93882616 72.25498383 30.5625 72.3125 C 20.306312 72.16684999 13.93002696 68.43899681 6.2265625 61.90234375 C 0.4035438 54.31198779 -0.58378485 45.71804224 -0.390625 36.42578125 C -0.38496521 35.37593552 -0.37930542 34.32608978 -0.37347412 33.24443054 C -0.35131214 29.93329769 -0.30115438 26.62329866 -0.25 23.3125 C -0.22990891 21.05014598 -0.21166275 18.78777478 -0.1953125 16.52539062 C -0.15151364 11.01649874 -0.0826282 5.50844073 0 0 Z" stroke-linecap="round" />
</g>
<g transform="matrix(1 0 0 1 785.72 538.5)"  >
<path style="stroke: none; stroke-width: 1; stroke-dasharray: none; stroke-linecap: butt; stroke-dashoffset: 0; stroke-linejoin: miter; stroke-miterlimit: 4; fill: rgb(108,73,185); fill-rule: nonzero; opacity: 1;" vector-effect="non-scaling-stroke"  transform=" translate(18.28, -29)" d="M 0 0 C 0 5.61 0 11.22 0 17 C -2.5678125 17.1546875 -2.5678125 17.1546875 -5.1875 17.3125 C -9.49561836 17.71119476 -12.63634065 18.07036121 -16 21 C -18.43655335 24.62604329 -18.3444792 28.38548079 -18.4140625 32.609375 C -18.43342865 33.33618469 -18.4527948 34.06299438 -18.4727478 34.81182861 C -18.53234271 37.12443448 -18.57884758 39.43709067 -18.625 41.75 C -18.66319836 43.32163582 -18.70225117 44.89325113 -18.7421875 46.46484375 C -18.83963062 50.30978671 -18.9193553 54.15452137 -19 58 C -24.61 58 -30.22 58 -36 58 C -36.11551331 52.91228052 -36.21481637 47.82920269 -36.2746582 42.74121094 C -36.29962938 41.0148162 -36.33361907 39.28852529 -36.37719727 37.5625 C -36.87139246 17.46910465 -36.87139246 17.46910465 -29.31884766 9.14770508 C -20.96621964 1.04074259 -11.06165246 -0.13168634 0 0 Z" stroke-linecap="round" />
</g>
<g transform="matrix(1 0 0 1 308.11 503.91)"  >
<path style="stroke: none; stroke-width: 1; stroke-dasharray: none; stroke-linecap: butt; stroke-dashoffset: 0; stroke-linejoin: miter; stroke-miterlimit: 4; fill: rgb(248,246,251); fill-rule: nonzero; opacity: 1;" vector-effect="non-scaling-stroke"  transform=" translate(7.89, -5.41)" d="M 0 0 C 0.46707789 4.01686987 0.32150834 5.56501812 -2.125 8.875 C -5 11 -5 11 -8 11.625 C -11.98964728 10.79382348 -13.50348869 9.15735254 -16 6 C -16 5.01 -16 4.02 -16 3 C -14.08802961 2.29954544 -12.17019565 1.615081 -10.25 0.9375 C -9.18265625 0.55464844 -8.1153125 0.17179687 -7.015625 -0.22265625 C -4.07719958 -0.98010011 -2.77651052 -1.07151741 0 0 Z" stroke-linecap="round" />
</g>
<g transform="matrix(1 0 0 1 287.92 503.75)"  >
<path style="stroke: none; stroke-width: 1; stroke-dasharray: none; stroke-linecap: butt; stroke-dashoffset: 0; stroke-linejoin: miter; stroke-miterlimit: 4; fill: rgb(249,248,252); fill-rule: nonzero; opacity: 1;" vector-effect="non-scaling-stroke"  transform=" translate(-7.92, -6.25)" d="M 0 0 C 5.46864457 1.01591421 10.76390013 2.07091057 16 4 C 15.8125 6.3125 15.8125 6.3125 15 9 C 12.30779046 11.23068791 10.38546429 11.93706705 6.9375 12.5 C 4 12 4 12 1.625 9.9375 C -0.34116018 6.38328737 -0.31390173 4.002247 0 0 Z" stroke-linecap="round" />
</g>
<g transform="matrix(1 0 0 0.86 732.15 537.08)" style="" id="023d38c4-97c3-45e9-91ac-52865edefe9b"  >
		<text xml:space="preserve" font-family="Raleway" font-size="105" font-style="normal" font-weight="900" style="stroke: none; stroke-width: 1; stroke-dasharray: none; stroke-linecap: butt; stroke-dashoffset: 0; stroke-linejoin: miter; stroke-miterlimit: 4; fill: rgb(112,78,187); fill-rule: nonzero; opacity: 1; white-space: pre;" ><tspan x="-32.23" y="32.98" >o</tspan></text>
</g>
<g transform="matrix(0.95 0 0 1 512.47 533.51)" style="" id="a98646d5-6354-437e-af3c-8ba153898356"  >
		<text xml:space="preserve" font-family="Raleway" font-size="105" font-style="normal" font-weight="900" style="stroke: none; stroke-width: 1; stroke-dasharray: none; stroke-linecap: butt; stroke-dashoffset: 0; stroke-linejoin: miter; stroke-miterlimit: 4; fill: rgb(110,75,186); fill-rule: nonzero; opacity: 1; white-space: pre;" ><tspan x="-31.97" y="32.98" >e</tspan></text>
</g>
</svg>