<?xml version="1.0" encoding="UTF-8"?>
<svg version="1.1" xmlns="http://www.w3.org/2000/svg" width="874" height="582">
<path d="M0 0 C4.7139984 3.27539398 8.69328059 6.68268827 12.5625 10.9375 C15.94047129 14.5609374 15.94047129 14.5609374 20.8125 15.125 C21.864375 14.75375 22.91625 14.3825 24 14 C27.79182915 12.77875773 31.47326784 12.83214436 35.4375 12.8125 C36.73558594 12.79832031 38.03367188 12.78414062 39.37109375 12.76953125 C42.80288995 12.98748171 44.8748026 13.72955097 48 15 C51.38455457 14.53687807 53.42109559 13.14807258 56.07421875 11.05859375 C56.82380859 10.47529297 57.57339844 9.89199219 58.34570312 9.29101562 C59.11849609 8.67935547 59.89128906 8.06769531 60.6875 7.4375 C62.23151951 6.22588239 63.77701125 5.01613772 65.32421875 3.80859375 C66.00572998 3.27032959 66.68724121 2.73206543 67.3894043 2.17749023 C69 1 69 1 70 1 C69.58379047 6.66264024 69.01765427 12.18342076 67.875 17.75 C66.69605194 24.05558583 67.23965712 28.5563115 70.0625 34.3125 C73.20471502 41.10336762 72.89000863 47.21310633 70.375 54.1875 C68.58727673 58.305072 66.33177691 61.26377429 63.07421875 64.33203125 C61.74817864 65.9952364 61.74817864 65.9952364 62.30541992 68.28466797 C63.00897165 71.035073 63.92888686 73.50163062 65.0390625 76.11328125 C65.45148193 77.10247559 65.86390137 78.09166992 66.28881836 79.11083984 C66.7297583 80.1673877 67.17069824 81.22393555 67.625 82.3125 C73.04749817 95.56101355 77.426966 109.09314599 80.71533203 123.03222656 C80.95493652 124.01416992 81.19454102 124.99611328 81.44140625 126.0078125 C81.64580322 126.89355957 81.8502002 127.77930664 82.06079102 128.69189453 C83.21040875 131.51707937 84.38650218 132.47827817 87 134 C90.04279372 134.66680368 90.04279372 134.66680368 93 134 C97.06175488 128.60353134 96.77107675 123.48438826 96 117 C93.10449036 104.71017019 87.78564178 93.96261768 78.3828125 85.33984375 C76.34077598 83.36126034 76.01154757 82.08468218 75.625 79.25 C76.0233857 75.79732392 76.86725534 73.71600562 79.24609375 71.140625 C82.88303592 68.77539758 86.88293937 69.24421109 91 70 C99.5515507 73.94686956 103.72023172 82.62105842 107 91 C111.02786627 102.80223308 114.63318334 115.08244554 114.75 127.625 C114.76514648 128.36282715 114.78029297 129.1006543 114.79589844 129.86083984 C114.59059562 136.92097571 111.1406599 141.80955731 106.3125 146.75 C101.24258245 150.60782929 95.11815289 153.07770426 88.75 153.1875 C84.98998213 153.60476504 84.98998213 153.60476504 83.3125 155.984375 C82.29577812 157.58062835 81.32850056 159.20983573 80.421875 160.87109375 C78.75103947 163.37275684 77.77864572 163.91639786 75 165 C72.3396759 165.26501465 72.3396759 165.26501465 69.27270508 165.28710938 C68.12083206 165.30052368 66.96895905 165.31393799 65.78218079 165.32775879 C63.91966927 165.33567444 63.91966927 165.33567444 62.01953125 165.34375 C60.05946202 165.36609723 58.09939284 165.38845522 56.13933086 165.41143036 C52.69711993 165.44912178 49.25481673 165.47413079 45.8125 165.5 C41.72343509 165.53087401 37.63448449 165.56413944 33.545578 165.61193848 C31.00132069 165.64083839 28.45694996 165.66133868 25.91255188 165.67224121 C20.03698317 165.73974241 14.58929767 166.01002237 8.897995 167.53186035 C4.95458242 168.50450137 0.93499356 169.07690329 -2.76171875 167.01953125 C-5.62002711 164.77025712 -7.96800294 162.50879 -9 159 C-9.56534307 153.00736344 -8.55538301 148.091426 -4.640625 143.35546875 C-4.14046875 142.80503906 -3.6403125 142.25460937 -3.125 141.6875 C4.77067345 132.90577841 6.10555944 123.48411551 6.17578125 112.0625 C6.19896642 110.57550647 6.22308322 109.08852723 6.24804688 107.6015625 C6.28313901 105.29775145 6.31253212 102.99447576 6.32592773 100.69042969 C6.40864694 88.74323185 7.77742946 81.13618948 16 72 C15.26394531 71.5875 14.52789062 71.175 13.76953125 70.75 C7.39192294 66.97566906 3.09306028 63.80473261 0 57 C-0.433125 56.071875 -0.86625 55.14375 -1.3125 54.1875 C-2.77508897 47.40640568 -2.84178621 41.3365576 0 34.9375 C3.68687343 26.62242374 1.90967831 18.73213272 0.4453125 10.0078125 C-0.06027097 6.59290657 -0.1599998 3.43999572 0 0 Z " fill="#6D4ABA" transform="translate(199,215)"/>
<path d="M0 0 C2.46695206 1.69031901 4.55945747 3.52691717 6.625 5.6875 C7.346875 4.924375 8.06875 4.16125 8.8125 3.375 C12.72740057 -0.36590499 15.40078982 -2.46891175 20.875 -2.6875 C28.52416531 -2.34500006 33.75295698 -0.69290353 39.0625 5 C43.81510897 10.50150493 44.88166238 15.65800146 44.8203125 22.8359375 C44.8174826 23.49332916 44.81465271 24.15072083 44.81173706 24.82803345 C44.80063447 26.90638233 44.77554986 28.98428366 44.75 31.0625 C44.73995731 32.48046248 44.73083373 33.89843179 44.72265625 35.31640625 C44.7024379 38.77374429 44.6632735 42.23012735 44.625 45.6875 C39.675 45.6875 34.725 45.6875 29.625 45.6875 C29.59921875 43.48449219 29.5734375 41.28148437 29.546875 39.01171875 C29.50845603 36.87690479 29.46329586 34.74233252 29.41748047 32.60766602 C29.38926459 31.12471058 29.36805298 29.64160457 29.35400391 28.15844727 C29.3325808 26.02542003 29.28594218 23.89420394 29.234375 21.76171875 C29.21342773 20.47869873 29.19248047 19.19567871 29.17089844 17.8737793 C28.92448034 14.63747309 28.92448034 14.63747309 26.77441406 12.77270508 C23.81473366 11.27840937 21.89731391 11.21028756 18.625 11.6875 C15.59838889 13.93029996 14.71768598 15.1428248 14.07910156 18.89550781 C14.0581543 20.13139648 14.03720703 21.36728516 14.015625 22.640625 C13.99908875 23.30084656 13.98255249 23.96106812 13.96551514 24.64129639 C13.91711549 26.74012626 13.89568481 28.83823222 13.875 30.9375 C13.84683317 32.3646196 13.81690472 33.79170559 13.78515625 35.21875 C13.70805351 38.70866347 13.66747193 42.19630769 13.625 45.6875 C9.005 45.6875 4.385 45.6875 -0.375 45.6875 C-0.38917969 43.65207031 -0.40335937 41.61664063 -0.41796875 39.51953125 C-0.45275006 37.53699637 -0.48770786 35.55446036 -0.52758789 33.57202148 C-0.55070978 32.19974569 -0.56515003 30.82729391 -0.57055664 29.45483398 C-0.57988665 27.47615529 -0.62357019 25.49773376 -0.66796875 23.51953125 C-0.6836792 22.33077393 -0.69938965 21.1420166 -0.71557617 19.91723633 C-1.55872177 15.78766463 -3.10761931 14.27125522 -6.375 11.6875 C-9.89965728 11.26454113 -12.01133609 11.5662787 -15.375 12.6875 C-16.51794314 16.11632941 -16.58464472 18.92832838 -16.69140625 22.54296875 C-16.71218735 23.20460526 -16.73296844 23.86624176 -16.75437927 24.54792786 C-16.81964727 26.65684852 -16.87865344 28.76589135 -16.9375 30.875 C-16.98070689 32.30665315 -17.02432188 33.73829404 -17.06835938 35.16992188 C-17.17607185 38.67565796 -17.27531308 42.18148975 -17.375 45.6875 C-21.995 45.6875 -26.615 45.6875 -31.375 45.6875 C-31.44426888 41.41848434 -31.50387559 37.15145631 -31.53979492 32.88232422 C-31.55478417 31.43336339 -31.57518271 29.98444717 -31.60131836 28.53564453 C-31.90533131 11.23671173 -31.90533131 11.23671173 -26.83203125 4.69921875 C-19.02036722 -1.59093352 -9.31083616 -5.64448126 0 0 Z " fill="#6E4BBA" transform="translate(363.375,286.3125)"/>
<path d="M0 0 C6.20544124 6.58152859 7.44942799 13.36893304 7.33203125 22.15234375 C6.66093538 29.70946677 2.76097535 33.95421094 -2.83984375 38.7421875 C-9.78808333 43.52961515 -17.86760188 42.82694027 -25.9375 42.1875 C-32.27004721 40.60672962 -36.33006469 36.46941462 -39.9375 31.1875 C-43.51742428 25.10162872 -43.84963281 19.07234863 -42.9375 12.1875 C-40.69669478 4.79076796 -36.69259261 -0.10433016 -29.9375 -3.8125 C-19.45617661 -8.00502936 -9.42536825 -5.81565275 0 0 Z " fill="#6D4ABA" transform="translate(632.9375,289.8125)"/>
<path d="M0 0 C3.66610218 2.77275314 5.27879245 6.01628852 6.0625 10.5 C6.25724276 13.90799826 5.95561373 15.09409889 4.4375 18.3125 C0.34731507 22.82219108 -4.0448458 25.6766324 -10 27 C-14.00637738 27.15773139 -17.99291867 27.10797525 -22 27 C-22.66 27 -23.32 27 -24 27 C-19.13704389 30.96742243 -14.13295409 30.34322378 -8.1875 30.1875 C-7.20845703 30.17396484 -6.22941406 30.16042969 -5.22070312 30.14648438 C-2.81356459 30.11125796 -0.40671057 30.05745463 2 30 C2 34.29 2 38.58 2 43 C-7.84854139 44.96970828 -21.08439003 46.56995178 -30.0625 41.3125 C-35.37415166 37.2695851 -38.17310875 33.43249945 -40 27 C-40.78539711 19.12776389 -41.09076252 11.44229239 -36 5 C-26.44716012 -5.56858488 -12.26142152 -7.0917411 0 0 Z " fill="#6E4BBA" transform="translate(454,288)"/>
<path d="M0 0 C6.66769681 7.03812441 7.86598997 14.47532345 7.68945312 23.91796875 C7.64769896 25.27866324 7.60537453 26.63934035 7.5625 28 C7.53736056 29.3996993 7.51455743 30.7994426 7.49414062 32.19921875 C7.43565099 35.59161776 7.34598713 38.98345484 7.25 42.375 C2.63 42.375 -1.99 42.375 -6.75 42.375 C-6.79898438 40.40015625 -6.84796875 38.4253125 -6.8984375 36.390625 C-6.97346811 33.80206908 -7.04901581 31.21352811 -7.125 28.625 C-7.1559375 27.32304687 -7.186875 26.02109375 -7.21875 24.6796875 C-7.27675781 22.80410156 -7.27675781 22.80410156 -7.3359375 20.890625 C-7.3673584 19.73852539 -7.3987793 18.58642578 -7.43115234 17.39941406 C-7.73684324 14.49979785 -8.18244708 12.80112668 -9.75 10.375 C-13.18800392 7.82833043 -16.60106275 7.86548139 -20.75 8.375 C-24.0378127 10.95316541 -25.5642756 12.46535612 -26.40942383 16.60473633 C-26.42513428 17.79349365 -26.44084473 18.98225098 -26.45703125 20.20703125 C-26.48603516 21.49931641 -26.51503906 22.79160156 -26.54492188 24.12304688 C-26.5513102 25.47786219 -26.55716288 26.83268013 -26.5625 28.1875 C-26.58565748 29.5618884 -26.61102545 30.93624144 -26.63867188 32.31054688 C-26.69752287 35.66505362 -26.72662802 39.02005846 -26.75 42.375 C-31.37 42.375 -35.99 42.375 -40.75 42.375 C-40.81928634 38.24861349 -40.87889011 34.12372995 -40.91479492 29.99707031 C-40.92977914 28.59660969 -40.95017379 27.19619517 -40.97631836 25.79589844 C-41.2853719 8.80401358 -41.2853719 8.80401358 -35.98828125 2.16796875 C-24.11218082 -7.73279652 -13.12927441 -7.75820761 0 0 Z " fill="#6C4AB9" transform="translate(507.75,289.625)"/>
<path d="M0 0 C4.95 0 9.9 0 15 0 C15 4.29 15 8.58 15 13 C19.29 13 23.58 13 28 13 C28 17.62 28 22.24 28 27 C23.71 27 19.42 27 15 27 C14.99499383 35.5495607 14.99499383 35.5495607 18 43.25 C22.1056913 45.64498659 25.26601291 45.78803043 30 46 C30 50.29 30 54.58 30 59 C21.10584797 59.3335307 15.29789235 58.78098917 7.8125 53.9375 C2.64007008 49.06422181 0.00970835 43.44855365 -0.40161133 36.3425293 C-0.55314704 30.85072625 -0.43700122 25.3662085 -0.3125 19.875 C-0.28738268 17.94534143 -0.26457558 16.01565133 -0.24414062 14.0859375 C-0.18942463 9.38983782 -0.10334302 4.695271 0 0 Z " fill="#714FBB" transform="translate(557,273)"/>
<path d="M0 0 C4.62 0 9.24 0 14 0 C14 4.29 14 8.58 14 13 C18.29 13 22.58 13 27 13 C27 17.62 27 22.24 27 27 C22.71 27 18.42 27 14 27 C14.12375 28.8975 14.2475 30.795 14.375 32.75 C14.44460938 33.81734375 14.51421875 34.8846875 14.5859375 35.984375 C14.98277968 38.87458409 15.3404515 40.62309827 17 43 C21.00936613 45.65577671 25.31877071 45.58695036 30 46 C30 50.29 30 54.58 30 59 C21.22535412 59.46182347 15.03113844 59.58960797 8 54 C3.60750901 49.98274694 0.44217774 44.75214942 -0.25985718 38.79495239 C-0.34519748 36.30691967 -0.33774701 33.83673037 -0.29296875 31.34765625 C-0.28872391 30.44752304 -0.28447906 29.54738983 -0.28010559 28.61997986 C-0.26341816 25.76717214 -0.22578497 22.91509137 -0.1875 20.0625 C-0.1724403 18.11915088 -0.15875415 16.17579061 -0.14648438 14.23242188 C-0.11354726 9.48800451 -0.0618344 4.74412517 0 0 Z " fill="#6D4BBA" transform="translate(523,273)"/>
<path d="M0 0 C0 4.62 0 9.24 0 14 C-1.5675 14.0825 -3.135 14.165 -4.75 14.25 C-8.28072323 14.59458261 -9.67946533 14.75764452 -12.5625 16.9375 C-15.03955272 20.49153216 -15.17497004 22.77765557 -15.31640625 27.1015625 C-15.35830078 28.31328125 -15.40019531 29.525 -15.44335938 30.7734375 C-15.48267578 32.04445313 -15.52199219 33.31546875 -15.5625 34.625 C-15.60568359 35.90375 -15.64886719 37.1825 -15.69335938 38.5 C-15.7996981 41.66653082 -15.9003767 44.83325079 -16 48 C-20.62 48 -25.24 48 -30 48 C-30.11576927 43.90948585 -30.21498362 39.82322269 -30.2746582 35.73193359 C-30.29956805 34.34501736 -30.33351002 32.95822913 -30.37719727 31.57177734 C-30.64418701 22.87105272 -30.47232713 15.20463848 -25 8 C-17.49675073 1.36367339 -9.83873174 -0.35138328 0 0 Z " fill="#6C49B9" transform="translate(677,284)"/>
<path d="M0 0 C3.27634314 2.67456583 4.63024101 4.12149228 5.4375 8.22265625 C5.65392211 12.2738076 5.31439697 14.47961881 3.1875 18 C-0.43585831 21.31278474 -4.07023482 21.39376845 -8.7734375 21.35546875 C-12.36894037 20.78144987 -13.89480532 18.82885535 -16 16 C-17.20190901 12.39427296 -17.32670315 9.7897565 -17 6 C-12.7421997 -0.84289333 -7.53054048 -2.25112242 0 0 Z " fill="#FAF9FC" transform="translate(621,298)"/>
<path d="M0 0 C0.28792938 5.56663461 0.22557511 9.2172507 -3 14 C-5.88932788 16.40777323 -7.69478136 16.96115399 -11.4375 17.4375 C-15.71381679 16.91233829 -17.71769265 15.76012209 -21 13 C-23.18702362 10.01106771 -24 8.72055546 -24 5 C-20.75505307 3.9626003 -17.50340596 2.94802761 -14.25 1.9375 C-13.32960937 1.64294922 -12.40921875 1.34839844 -11.4609375 1.04492188 C-10.57148438 0.77099609 -9.68203125 0.49707031 -8.765625 0.21484375 C-7.94868164 -0.04176025 -7.13173828 -0.29836426 -6.29003906 -0.56274414 C-3.82131929 -1.03411697 -2.3580946 -0.79786936 0 0 Z " fill="#F8F7FC" transform="translate(261,253)"/>
<path d="M0 0 C4.52212725 0.66481503 8.80093535 1.72117301 13.1875 3 C15.00314453 3.5259375 15.00314453 3.5259375 16.85546875 4.0625 C18.91353653 4.67608542 20.96262005 5.32087335 23 6 C22.63265306 12.36734694 22.63265306 12.36734694 19.625 15.375 C15.33285487 18.03204222 11.9988964 18.43093935 7 18 C3.47551536 15.80698733 1.52576261 13.83151148 0 10 C-0.1953125 7.421875 -0.1953125 7.421875 -0.125 4.75 C-0.09792969 3.41195312 -0.09792969 3.41195312 -0.0703125 2.046875 C-0.04710937 1.37140625 -0.02390625 0.6959375 0 0 Z " fill="#F9F8FC" transform="translate(208,252)"/>
<path d="M0 0 C0.33 1.65 0.66 3.3 1 5 C-1.77052181 5.92350727 -3.56688758 6.16329585 -6.4375 6.1875 C-7.19933594 6.20167969 -7.96117187 6.21585937 -8.74609375 6.23046875 C-11.23347315 5.97612666 -12.84808106 5.24017196 -15 4 C-10.44224642 -0.86160382 -6.22129884 -0.43488691 0 0 Z " fill="#F9F8FC" transform="translate(444,298)"/>
</svg>
